# xmcd
# 
# Track frame offsets:
#     150
#     14073
#     34030
#     56415
#     69973
#     82188
#     98113
#     119625
#     140220
#     154560
#     169680
#     186973
#     205150
#     226398
# 
# Disc length: 3255
# 
# Revision: 3
# Processed by: cddbd v1.5.2PL0 Copyright (c) Steve Scherf et al.
# Submitted via: fre:ac v1.0.31
# 
DISCID=c30cb50e
DTITLE=Aron Neville - Warm Your Heart
DYEAR=1991
DGENRE=Jazz+Funk
TTITLE0=Louisiana 1927
TTITLE1=Everybody Plays The Fool
TTITLE2=It Feels Like Rain
TTITLE3=Somewhere, Somebody
TTITLE4=Don't Go Please Stay
TTITLE5=With You In Mind
TTITLE6=That's The Way She Loves
TTITLE7=Angola Bound
TTITLE8=Close Your Eyes
TTITLE9=La Vie Dansante
TTITLE10=Warm Your Heart
TTITLE11=I Bid You Goodnight
TTITLE12=Ave Maria
TTITLE13=House On A Hill
EXTD=
EXTT0=
EXTT1=
EXTT2=
EXTT3=
EXTT4=
EXTT5=
EXTT6=
EXTT7=
EXTT8=
EXTT9=
EXTT10=
EXTT11=
EXTT12=
EXTT13=
PLAYORDER=
